<svg xmlns="http://www.w3.org/2000/svg" xmlns:xlink="http://www.w3.org/1999/xlink" width="600" height="600" viewBox="0 0 600 600"><defs><clipPath id="b"><rect width="600" height="600"/></clipPath></defs><g id="a" clip-path="url(#b)"><g transform="translate(50.442 50.432)" fill="none"><path d="M50,0H450a50,50,0,0,1,50,50V450a50,50,0,0,1-50,50H50A50,50,0,0,1,0,450V50A50,50,0,0,1,50,0Z" stroke="none"/><path d="M 50 30 C 38.97198486328125 30 30 38.97198486328125 30 50 L 30 450 C 30 461.0280151367188 38.97198486328125 470 50 470 L 450 470 C 461.0280151367188 470 470 461.0280151367188 470 450 L 470 50 C 470 38.97198486328125 461.0280151367188 30 450 30 L 50 30 M 50 0 L 450 0 C 477.6141967773438 0 500 22.3857421875 500 50 L 500 450 C 500 477.6141967773438 477.6141967773438 500 450 500 L 50 500 C 22.3857421875 500 0 477.6141967773438 0 450 L 0 50 C 0 22.3857421875 22.3857421875 0 50 0 Z" stroke="none" fill="#ef5350"/></g><rect width="200" height="35" rx="17.5" transform="translate(100 334)" fill="#ef5350"/><rect width="400" height="35" rx="17.5" transform="translate(100 254)" fill="#ef5350"/><rect width="300" height="35" rx="17.5" transform="translate(100 414)" fill="#ef5350"/><rect width="200" height="50" rx="25" transform="translate(200 151)" fill="#ef5350"/></g></svg>